<?xml version="1.0" encoding="utf-8" ?><svg xmlns="http://www.w3.org/2000/svg" xmlns:xlink="http://www.w3.org/1999/xlink" width="1024" height="683" viewBox="0 0 1024 683"><path transform="scale(1.6732 1.67402)" d="M310.656 119.77C314.581 116.75 318.806 114.566 323.053 112.062C329.733 108.124 336.518 104.031 343.507 100.662C345.092 99.8978 352.735 95.4607 353.277 95.4103C350.024 98.9553 343.405 103.054 339.584 106.376C334.711 110.613 330.369 115.178 325.677 119.593C324.789 120.429 324.006 122.236 323.042 123.322C321.974 124.525 319.336 125.413 318.8 126.414C323.275 126.264 327.005 122.548 330.064 120.044C331.433 118.923 335.128 118.638 337.02 117.553C341.759 114.849 345.909 111.368 350.348 108.244C351.908 107.147 354.596 107.097 355.936 106.199C359.55 103.779 363.316 101.817 367.037 99.6002C368.331 98.6286 370.251 97.6024 371.517 96.7578C372.954 95.7988 375.454 96.7302 375.614 96.6421C384.216 91.9066 392.331 87.1185 401.324 83.1149C407.529 80.353 413.723 76.3067 420.044 73.6066C422.506 72.4904 430.772 68.065 432.497 67.5C430.066 69.8158 423.508 74.7383 420.452 77.2438C412.924 83.4293 405.512 89.7536 398.219 96.2134C395.708 98.4278 389.873 103.505 388.106 105.991C389.956 104.736 391.948 103.335 393.821 102.148C390.332 107.537 371.432 120.956 370.301 123.856C371.219 123.444 372.978 122.536 373.888 122.533C374.753 125.546 356.939 135.452 354.575 137.586C353.465 138.589 351.398 139.771 350.25 140.961C344.128 147.305 336.81 152.391 330.585 158.548C329.438 159.682 328.156 165.97 327.623 167.759L319.316 195.108C317.934 199.779 316.829 205.366 314.757 209.637L314.568 210.022C316.157 208.706 319.063 205.962 321.009 205.789C322.199 207.002 321.046 207.023 322.221 207.811C323.712 207.471 324.489 206.394 326.379 205.831C323.068 192.223 327.042 176.994 334.195 165.232C342.585 151.436 353.342 146.761 367.837 141.932C369.052 139.787 385.747 127.713 387.961 127.465C385.73 129.774 384.431 130.107 382.255 132.797C388.371 128.799 394.548 125.028 400.984 121.561C403.346 120.288 406.076 116.544 408.605 117.577C411.649 116.061 414.938 114.491 417.942 112.922C420.324 111.677 425.099 105.899 428.212 106.179L428.955 107.052C430.437 106.983 439.405 102.669 441.259 101.766C442.57 101.128 448.513 97.3099 449.653 97.175C449.258 97.768 448.744 98.3799 448.703 99.0598C449.555 98.9501 455.528 95.7998 456.858 95.1504C467.376 90.0142 478.011 84.9384 488.308 79.3717C492.628 77.036 497.565 74.5509 501.538 71.7686L501.601 72.1177C496.063 77.2195 490.37 82.498 484.897 87.6619C481.441 90.9232 473.654 97.057 470.874 100.284L471.061 100.52C474.203 99.5328 477.138 97.2686 479.929 96.2921C475.529 100.025 471.16 103.794 466.823 107.6C464.729 109.445 462.437 111.721 460.302 113.388C456.683 116.214 452.26 118.326 448.659 121.203C447.369 122.234 445.649 124.76 444.649 125.946C443.238 127.62 433.556 134.331 432.226 134.565L432.077 134.261L433.054 132.526C431.798 132.434 426.814 136.898 425.193 137.759C422.654 139.108 420.134 140.135 417.595 141.469C419.605 141.428 423.115 141.06 424.677 142.169C424.508 143.891 423.092 147.852 422.561 149.718C420.873 155.643 418.736 161.692 417.03 167.582C406.782 167.269 396.703 166.636 386.436 166.79C381.759 166.86 376.632 166.378 372.08 167.429C369.379 168.052 367.369 169.882 365.017 171.032C362.947 174.809 358.777 188.029 359.651 192.008C360.768 197.087 377.676 195.528 381.563 194.323C383.514 193.719 383.577 190.672 383.763 188.992C379.322 188.513 376.042 188.312 371.642 188.094C373.626 182.986 374.807 178.124 376.616 173.017C389.567 173.144 403.488 173.265 416.44 173.034L416.329 173.279C415.306 175.59 414.863 178.371 414.102 180.609C411.774 187.457 408.26 202.783 404.687 208.124C402.042 212.008 398.298 215.014 393.934 216.755C383.204 221.092 373.365 220.925 362.193 221.578C359.846 223.351 356.322 226.783 353.955 228.071C347.432 231.622 342.044 236.018 336.041 240.332C334.56 241.396 331.688 241.148 330.215 242.363C327.392 244.569 324.803 247.184 322.114 249.564C318.28 252.933 314.242 256.062 310.021 258.932C309.254 259.464 307.442 260.835 306.662 261.012C308.777 257.238 318.282 248.061 321.386 245.154C317.016 248.03 283.828 272.548 282.004 272.771C281.977 272.027 282.041 271.866 282.211 271.167C280.849 271.39 263.387 286.401 260.044 287.16C259.169 287.358 257.494 289.55 256.532 289.521C256.551 289.293 262.239 280.839 262.868 279.928C259.456 281.467 254.115 284.107 250.941 286.102C247.867 288.032 245.483 290.17 242.12 292.072L186.759 323.42C181.214 326.535 175.655 329.758 169.966 332.586C168.314 333.407 166.526 334.727 164.813 335.26C165.768 333.995 169.132 331.319 170.56 330.117C181.597 320.83 193.071 312.077 203.512 302.098C206.597 299.15 209.101 295.155 212.623 292.476C218.831 286.776 227.043 280.783 232.584 274.771C231.481 273.885 231.465 274.898 230.138 273.884C230.55 271.058 244.848 262.222 244.685 260.233C243.877 260.369 243.259 260.477 242.442 260.534C242.495 259.671 248.047 254.673 248.979 253.855C252.403 250.849 256.787 248.411 260.367 245.585C263.543 243.078 265.189 240.995 268.704 238.724C267.597 239.081 265.327 239.951 264.31 239.833L264.208 239.398C264.664 238.864 265.134 238.341 265.616 237.829C260.5 239.208 255.095 244.001 250.231 246.3C248.381 247.174 246.3 247.312 244.517 248.297C239.897 251.369 234.98 255.576 229.683 257.476C229.607 258.552 229.586 260.447 228.601 261.099C216.909 268.829 203.688 274.323 191.416 281.046C185.977 284.026 181.415 288.233 176.275 291.645C172.205 294.335 167.379 296.306 163.205 298.877C152.435 304.922 141.501 311.589 130.493 317.096C135.388 311.991 141.433 308.993 147.349 305.165C152.61 301.761 158.072 298.468 163.434 295.241C165.67 293.895 173.335 290.087 174.689 288.543C173.134 288.272 171.613 288.094 170.195 287.402C157.296 293.807 145.436 301.592 133.09 308.965C132.059 309.581 127.196 312.73 126.483 312.608C126.665 311.916 157.833 282.472 161.302 277.885C164.041 274.262 178.319 262.573 182.583 257.809L182.237 257.643C179.825 258.507 161.813 270.496 158.829 272.722L158.528 272.673C159.293 271.217 161.505 270.134 162.812 268.878C172.537 259.537 182.649 250.347 192.993 241.696C196.175 239.034 197.582 235.858 200.474 233.568C201.812 233.035 207.459 229.015 207.954 227.813C206.444 227.57 201.993 229.732 200.519 230.527C197.987 231.439 191.7 234.884 188.922 236.202C187.139 237.048 184.718 238.976 182.767 239.676L182.733 239.348C183.918 238.15 185.679 237.534 187.1 236.575C195.276 231.054 202.173 223.797 210.237 218.24C209.141 220.073 207.486 222.101 206.103 223.724C213.294 222.055 218.113 217.655 224.194 213.598C223.175 216.154 223.931 216.829 222.28 219.858C224.58 218.305 226.145 217.586 228.379 215.754C230.869 209.653 234.538 195.89 236.536 189.083L250.598 141.278C254.673 140.886 283.735 140.72 286.933 141.607C288.969 145.239 292.848 165.509 294.587 166.324C296.012 163.822 299.659 158.185 301.438 155.962C305.565 150.802 304.986 148.245 307.008 142.266C307.149 141.85 309.39 141.045 310.177 139.993C310.289 139.084 310.39 139.474 309.991 138.76C304.109 138.346 291.585 138.55 285.675 138.754C290.517 135.3 295.237 133.351 299.932 130.313C305.77 126.536 313.502 121.43 318.831 117.095C316.164 118.091 313.834 120.242 311.155 120.267L310.656 119.77ZM261.436 208.361L266.888 205.762C266.984 204.429 266.997 204.246 267.636 203.054L268.097 202.726C268.667 203.509 273.199 218.673 273.937 220.867C269.742 224.289 267.175 225.168 263.84 227.662C265.117 228.301 266.645 228.636 268.501 229.59C271.621 228.035 274.457 226.189 277.481 224.452C278.617 225.101 279.975 225.572 281.203 226.048C281.368 225.842 282.82 224.474 283.172 224.107C283.164 224.503 283.205 224.983 283.226 225.387L283.691 225.642C284.83 225.197 285.448 224.398 286.319 223.51C288.791 222.168 289.639 221.549 291.739 219.753C287.347 219.388 284.073 219.213 279.681 219.518C277.823 210.571 274.554 202.265 272.212 193.428C271.318 190.056 270.311 186.226 268.815 183.092C267.062 185.375 265.115 193.861 264.072 197.204C263.427 200.845 262.182 204.288 261.436 208.361ZM300.593 167.37C298.779 168.751 296.946 170.107 295.094 171.436L295.098 171.881C295.482 173.613 296.247 176.964 297.228 178.408L297.595 178.415C298.947 173.648 299.81 172.587 300.593 167.37ZM228.665 257.063L228.699 255.688L228.24 255.325C227.021 255.564 226.616 255.566 225.404 255.577C223.457 256.663 221.52 257.767 219.594 258.889C217.869 261.33 216.924 263.263 214.864 265.846C218.315 263.475 222.518 262.019 226.145 259.904C227.781 258.951 228.219 258.751 228.665 257.063Z"/><path transform="scale(1.6732 1.67402)" d="M283.172 224.107C283.467 223.825 284.185 223.28 284.535 223C285.712 222.834 285.233 222.725 286.319 223.51C285.448 224.398 284.83 225.197 283.691 225.642L283.226 225.387C283.205 224.983 283.164 224.503 283.172 224.107Z"/><path fill="#E44F04" transform="scale(1.6732 1.67402)" d="M231.94 220.989C235.415 219.166 241.037 212.213 243.338 211.278C243.829 211.472 243.977 211.535 244.491 211.646C245.992 210.523 248.91 208.203 250.359 207.286C255.832 203.823 259.528 201.859 264.072 197.204C263.427 200.845 262.182 204.288 261.436 208.361L266.888 205.762C267.657 209.48 263.698 211.516 261.294 213.679C262.419 213.513 262.934 213.213 263.737 213.677C262.953 216.265 251.929 221.167 248.625 223.458C250.264 223.228 252.091 222.928 253.723 222.779C251.62 225.451 249.774 227.632 247.041 229.771C244.263 231.945 240.837 233.129 237.883 235.023C232.646 238.382 210.733 255.847 206.438 256.896C205.775 257 205.818 256.917 205.287 257.251C202.291 260.388 198.721 262.921 194.771 264.712C192.724 265.622 189.768 266.694 187.979 267.847C185.12 269.689 182.291 271.676 179.431 273.541C173.974 277.039 168.542 280.575 163.134 284.149C169.118 277.239 176.531 270.757 182.975 264.199C185.36 261.772 188.915 259.464 191.124 256.87L191.501 256.628C191.713 255.716 191.585 255.928 190.99 254.831C193.686 252.204 204.381 244.099 205.276 242.659C204.603 242.766 204.004 242.89 203.337 243.032L203.239 242.74C208.914 234.326 215.513 235.203 221.041 229.038C219.167 229.937 217.052 230.804 215.131 231.638C219.297 227.115 225.708 221.428 231.215 218.667C231.825 219.886 230.688 220.347 231.422 221.141L231.94 220.989Z"/><path fill="#1B0101" transform="scale(1.6732 1.67402)" d="M205.287 257.251C205.188 256.595 204.89 256.144 204.592 255.537C205.172 254.648 210.502 251.209 211.615 250.47C211.719 251.261 206.715 254.069 206.438 256.896C205.775 257 205.818 256.917 205.287 257.251Z"/><defs><linearGradient id="gradient_0" gradientUnits="userSpaceOnUse" x1="182.76068" y1="290.79181" x2="177.48868" y2="280.09558"><stop offset="0" stop-color="#C3C0C4"/><stop offset="1" stop-color="#F9F8F8"/></linearGradient></defs><path fill="url(#gradient_0)" transform="scale(1.6732 1.67402)" d="M228.665 257.063L229.683 257.476C229.607 258.552 229.586 260.447 228.601 261.099C216.909 268.829 203.688 274.323 191.416 281.046C185.977 284.026 181.415 288.233 176.275 291.645C172.205 294.335 167.379 296.306 163.205 298.877C152.435 304.922 141.501 311.589 130.493 317.096C135.388 311.991 141.433 308.993 147.349 305.165C152.61 301.761 158.072 298.468 163.434 295.241C165.67 293.895 173.335 290.087 174.689 288.543C173.134 288.272 171.613 288.094 170.195 287.402C177.939 281.962 185.155 276.393 193.528 271.816C194.65 271.203 197.056 269.664 198.154 269.35L198.797 270.085C200.568 269.715 215.533 260.615 219.594 258.889C217.869 261.33 216.924 263.263 214.864 265.846C218.315 263.475 222.518 262.019 226.145 259.904C227.781 258.951 228.219 258.751 228.665 257.063Z"/><path fill="#F1EFF0" transform="scale(1.6732 1.67402)" d="M277.481 224.452C278.617 225.101 279.975 225.572 281.203 226.048C280.039 228.39 268.413 235.416 265.756 237.784C265.709 237.799 265.663 237.814 265.616 237.829C260.5 239.208 255.095 244.001 250.231 246.3C248.381 247.174 246.3 247.312 244.517 248.297C239.897 251.369 234.98 255.576 229.683 257.476L228.665 257.063L228.699 255.688L228.24 255.325C227.021 255.564 226.616 255.566 225.404 255.577L225.084 254.877L223.596 254.766L223.4 254.486C226.272 252.259 230.546 249.903 233.647 247.781C237.331 245.26 240.991 242.521 244.696 240.091C244.755 240.789 244.839 241.004 244.691 241.677C247.647 240.941 259.71 234.042 259.77 231.543C259.078 231.554 259.049 231.668 258.531 231.372C259.297 230.421 262.649 228.116 263.84 227.662C265.117 228.301 266.645 228.636 268.501 229.59C271.621 228.035 274.457 226.189 277.481 224.452Z"/><path fill="#C64714" transform="scale(1.6732 1.67402)" d="M231.215 218.667C232.877 217.674 234.177 217.134 235.937 216.372C234.938 217.417 232.207 219.909 231.94 220.989L231.422 221.141C230.688 220.347 231.825 219.886 231.215 218.667Z"/><path fill="#C64714" transform="scale(1.6732 1.67402)" d="M190.99 254.831C191.585 255.928 191.713 255.716 191.501 256.628L191.124 256.87C190.096 256.968 188.049 258.526 187.062 259.188C188.07 257.848 189.808 256.096 190.99 254.831Z"/><path fill="#D1CFD1" transform="scale(1.6732 1.67402)" d="M244.696 240.091C245.991 239.169 246.3 238.972 247.763 238.37C247.445 239.643 245.412 240.515 244.691 241.677C244.839 241.004 244.755 240.789 244.696 240.091Z"/><path fill="#E44F04" transform="scale(1.6732 1.67402)" d="M283.486 236.711C285.718 234.325 288.19 231.666 290.63 229.5C291.946 228.331 298.42 223.871 300.034 223.877C300.264 224.345 300.412 224.696 300.607 225.175C302.738 225.063 311.429 214.528 314.782 213.529C317.354 212.763 317.573 214.078 318.473 213.831C321.236 213.074 323.888 209.92 326.45 208.575C333.153 206.218 333.76 206.691 338.157 201.109C336.862 210.03 338.479 211.455 330.961 219.063C333.717 218.243 335.215 217.654 337.678 216.186C340.021 218.132 341.615 218.422 344.502 219.213C341.983 220.932 338.711 222.216 335.879 223.432C333.383 228.436 323.456 233.351 318.259 237.224C316.892 238.816 313.277 240.403 311.318 241.245C312.288 240.138 314.153 238.349 314.196 236.926C309.749 240.112 305.957 243.78 301.611 246.911C300.348 248.025 299.633 248.986 298.103 249.201C297.364 248.528 297.561 248.319 297.408 247.115C296.53 247.962 295.794 248.363 295.558 249.38L296.289 250.049C294.982 254.795 276.402 264.312 271.782 266.537C272.789 264.917 273.383 263.943 274.607 262.502L274.229 261.699C269.327 265.362 267.815 267.631 264.103 271.85C262.457 273.721 247.855 281.9 245.588 282.227C245.954 281.652 246.342 281.183 246.421 280.522C242.758 282.698 239.421 286.061 235.845 288.251C226.553 293.939 217.31 299.975 207.726 305.134C216.226 295.333 228.29 287.433 237.368 278.175C238.856 276.658 242.029 274.418 243.068 272.907L242.255 272.22C242.182 271.477 242.313 271.127 242.983 270.509C246.69 267.086 258.402 259.978 261.135 256.453C260.906 256.231 260.675 256.012 260.44 255.798C265.617 250.809 268.72 246.601 275.374 243.182C277.61 242.033 280.263 239.199 282.619 238.122C285.357 236.871 287.278 236.811 290.006 235.232C287.84 235.756 285.667 236.249 283.486 236.711Z"/><path fill="#C64714" transform="scale(1.6732 1.67402)" d="M314.196 236.926C314.666 236.226 314.762 236.235 315.585 235.909C316.605 235.907 316.71 236.045 317.633 236.58C317.979 237.149 317.737 236.988 318.259 237.224C316.892 238.816 313.277 240.403 311.318 241.245C312.288 240.138 314.153 238.349 314.196 236.926Z"/><path fill="#C64714" transform="scale(1.6732 1.67402)" d="M297.408 247.115C297.547 246.446 298.212 245.661 298.868 245.384C300.199 245.5 300.57 246.098 301.611 246.911C300.348 248.025 299.633 248.986 298.103 249.201C297.364 248.528 297.561 248.319 297.408 247.115Z"/><path fill="#5C0F05" transform="scale(1.6732 1.67402)" d="M277.631 258.677C276.716 259.994 275.8 261.451 274.607 262.502L274.229 261.699C275.336 260.662 276.47 259.654 277.631 258.677Z"/><path fill="#1B0101" transform="scale(1.6732 1.67402)" d="M308.802 225.128L308.937 225.16L309.037 225.384C305.16 227.781 301.399 230.309 297.539 232.73L297.38 232.719L297.233 232.388C298.923 230.041 305.92 226.169 308.802 225.128Z"/><path fill="#1B0101" transform="scale(1.6732 1.67402)" d="M280.874 242.358C281.018 242.408 281.242 242.605 281.38 242.71C281.035 243.661 277.928 246.05 276.902 246.905L276.593 246.823L276.473 246.329C277.406 244.884 279.467 243.349 280.874 242.358Z"/><path fill="#E44F04" transform="scale(1.6732 1.67402)" d="M434.805 110.633C436.509 109.786 444.163 104.268 445.799 103.995C446.027 104.6 445.993 104.608 446.418 105.083C447.251 104.855 451.736 102.305 453.02 101.694C454.77 103.926 457.643 102.055 458.356 104.146C456.256 106.172 452.886 107.912 451.73 109.07C447.921 112.887 446.554 114.773 442.056 117.978C439.565 119.753 433.635 122.974 431.922 124.49C433.147 124.707 433.824 124.284 434.319 124.825C433.312 126.814 420.934 135.642 418.397 136.267C410.913 138.11 412.064 140.248 406.972 145.541C403.17 149.493 398.554 151.314 393.386 153.053C395.274 151.361 397.016 149.776 398.825 148C393.007 151.087 389.187 153.8 384.289 158.177C382.092 160.141 378.059 161.98 375.637 163.818C372.652 165.814 369.754 164.909 367.372 166.279C364.893 167.706 362.119 169.928 359.629 171.544C353.068 175.806 345.24 180.679 339.053 185.409L337.751 185.158C343.753 179.106 348.703 174.233 355.232 168.677C359.038 165.439 362.203 161.928 366.424 158.782L366.607 158.647L366.458 158.416L364.823 158.747C365.269 155.631 378.597 148.133 381.245 145.395C379.208 146.32 376.726 147.232 374.61 148.064C377.372 145.394 379.906 144.048 382.526 141.754C388.037 136.928 393.02 133.67 399.222 129.804L400.37 130.327C399.81 131.048 399.835 131.01 399.594 131.895C401.05 131.919 407.577 126.042 408.897 124.898C415.157 119.473 425.355 113.977 432.97 110.947C433.45 110.744 434.25 110.699 434.805 110.633Z"/><path fill="#1B0101" transform="scale(1.6732 1.67402)" d="M432.97 110.947C433.45 110.744 434.25 110.699 434.805 110.633C432.504 114.892 430.367 115.613 426.131 118.112C428.108 115.925 431.951 113.504 433.098 111.371L432.97 110.947Z"/><path fill="#E44F04" transform="scale(1.6732 1.67402)" d="M389.664 93.4199C392.58 91.5217 398.392 88.4327 401.668 87.1562C399.364 89.4286 394.897 93.3278 392.129 95.0008C389.259 97.4177 386.127 100.773 383.269 102.982C377.051 107.787 372.209 113.26 366.321 118.37C365.555 119.035 364.189 119.532 363.222 119.466C361.364 119.472 356.29 123.508 354.796 124.778C356.157 124.197 356.988 123.83 358.414 123.458L358.652 123.673C354.401 129.897 347.491 128.877 341.898 134.15L342.028 134.288L344.553 133.332L344.784 133.466C339.833 139.06 334.667 143.835 327.122 145.775L326.645 145.653C327.435 144.404 328.69 143.717 328.869 142.916C326.688 142.799 317.741 151.372 315.593 153.092C313.36 154.88 302.272 166.567 300.593 167.37C298.779 168.751 296.946 170.107 295.094 171.436L293.772 169.966C298.005 165.093 301.525 160.538 305.133 155.204C306.498 153.115 309.302 150.873 310.598 148.873C313.759 143.995 317.036 140.847 320.859 136.653L313.3 141.372C313.861 139.652 313.964 137.298 314.415 136.339C319.888 132.31 327.122 128.747 332.8 124.683C334.645 123.363 338.339 122.305 340.527 120.86C345.832 117.357 349.776 113.209 356.056 111.404C355.244 112.087 354.792 112.45 354.088 113.275C354.751 113.425 370.345 100.714 374.583 101.268C376.608 101.532 386.851 95.1636 389.664 93.4199Z"/><path fill="#973416" transform="scale(1.6732 1.67402)" d="M389.664 93.4199C392.58 91.5217 398.392 88.4327 401.668 87.1562C399.364 89.4286 394.897 93.3278 392.129 95.0008C392.854 93.2802 393.733 92.9209 395.282 91.7541C393.638 92.1179 391.419 92.9289 389.664 93.4199Z"/><path fill="#C64714" transform="scale(1.6732 1.67402)" d="M474.578 90.3225C473.332 91.822 460.154 103.009 458.356 104.146C457.643 102.055 454.77 103.926 453.02 101.694C460.228 97.8666 467.44 94.3961 474.578 90.3225Z"/><path fill="#973416" transform="scale(1.6732 1.67402)" d="M288.3 176.518C290.08 174.298 291.905 172.113 293.772 169.966L295.094 171.436L295.098 171.881C292.854 173.459 290.588 175.005 288.3 176.518Z"/><path fill="#973416" transform="scale(1.6732 1.67402)" d="M399.222 129.804C400.93 128.555 402.346 127.797 404.181 126.781C403.426 127.577 401.241 130.029 400.37 130.327L399.222 129.804Z"/><path fill="#973416" transform="scale(1.6732 1.67402)" d="M334.431 188.703C335.603 187.309 336.444 186.432 337.751 185.158L339.053 185.409C337.236 187.003 336.449 187.491 334.431 188.703Z"/><path transform="scale(1.6732 1.67402)" d="M167.112 140.733C169.468 141.156 175.294 141.06 177.911 141.062C184.528 141.069 191.145 141.018 197.762 140.907C193.571 157.121 187.765 173.408 183.219 189.545C181.066 197.184 197.262 196.138 199.468 190.313C201.1 186.007 202.138 181.652 203.462 177.263L214.156 140.847C220.628 141.028 227.103 141.104 233.578 141.077C236.928 141.082 241.882 141.204 245.122 140.848C243.309 147.153 240.448 157.593 238.273 163.481C237.464 167.338 235.328 173.997 234.167 177.967C232.206 184.676 230.147 193.391 227.32 199.561C223.564 207.964 216.578 214.496 207.943 217.678C196.666 221.774 155.848 226.363 149.885 209.862C147.667 203.727 152.756 189.693 154.802 182.845L161.54 159.464L165.154 147.106C165.702 145.213 166.306 142.382 167.112 140.733Z"/><path transform="scale(1.6732 1.67402)" d="M160.717 140.959C161.097 140.999 160.938 140.996 161.328 141.384C161.248 142.582 158.679 150.656 158.118 152.617L149.945 180.764C145.349 196.72 142.801 211.407 125.055 217.875C116.694 220.923 112.959 220.974 104.18 221.111C93.1928 221.284 86.0683 220.508 76.0031 215.857L75.5434 215.277C75.5067 214.176 83.1941 187.055 84.1437 184.504C89.988 188.621 96.7886 189.852 103.793 190.05C115.549 190.381 116.11 186.447 119.167 176.453C121.619 168.268 124.005 160.064 126.325 151.84C127.137 149.052 128.4 143.773 129.451 141.36L129.598 141.029C132.497 140.852 137.29 141.013 140.305 141.018C147.109 141.033 153.913 141.013 160.717 140.959Z"/><path transform="scale(1.6732 1.67402)" d="M432.097 141.11C442.847 140.881 453.99 141.116 464.801 141.059C463.425 144.543 462.126 149.432 460.974 153.118C458.221 161.83 455.544 170.565 452.944 179.324C451.716 183.362 450.024 189.791 448.275 193.429L474.715 193.425C473.076 197.74 467.657 218.191 465.773 219.931C446.875 219.952 426.673 220.386 407.867 219.839C413.395 202.221 418.716 184.539 423.831 166.797C425.037 162.736 430.474 143.06 432.097 141.11Z"/><path transform="scale(1.6732 1.67402)" d="M496.761 141.15C507.009 140.774 518.353 141.522 528.514 140.97C526.847 145.278 524.321 154.473 522.801 159.395L509.785 202.05C508.603 205.874 505.543 217.52 503.575 219.897C493.737 220.398 481.712 219.874 471.736 219.869C472.769 215.828 475.085 209.053 476.366 204.949L484.302 179.042L491.575 155.108C492.475 152.14 494.706 142.696 496.761 141.15Z"/><path fill="#D1CFD1" transform="scale(1.6732 1.67402)" d="M534.696 142.122C535.199 142.419 535.499 142.709 535.637 143.287C536.074 145.125 514.43 215.868 511.751 223.476C511.175 225.114 510.553 226.7 509.63 228.179C490.995 228.483 472.367 228.162 453.796 228.427C442.488 228.588 431.177 228.623 419.868 228.532C416.883 228.519 403.654 228.8 402.265 227.924C402.291 226.872 402.248 226.775 402.784 225.917C404.128 224.981 406.438 225.44 408.046 225.264C416.387 224.352 424.288 224.308 432.669 224.447C440.508 224.577 448.627 223.752 456.469 223.976C462.041 224.135 467.825 225.169 473.452 225.141C476.541 225.159 480.073 223.931 483.122 224.087C487.708 224.322 492.372 224.443 496.946 224.753C501.014 225.029 504.138 225.797 508.293 225.443C510.361 221.687 511.382 214.416 512.82 210.115C517.661 195.638 521.856 180.868 526.556 166.357C528.71 159.707 531.283 147.638 534.696 142.122Z"/><path fill="#D1CFD1" transform="scale(1.6732 1.67402)" d="M144.292 211.5C144.773 211.703 145.029 211.812 145.273 212.352C145.586 213.054 145.648 214.674 145.126 215.303C129.682 233.87 94.1285 233.692 75.4536 223.543C74.8944 223.241 74.5184 222.907 74.0156 222.518C73.571 221.488 73.5608 221.866 73.7871 220.916C74.8942 220.667 76.9996 221.867 78.6344 222.246C81.3914 222.884 84.4893 222.871 87.0979 223.498C91.1121 224.463 95.7464 226.588 99.9313 226.887C111.468 227.71 125.511 225.559 135.24 219.04C138.862 216.613 141.07 214.091 144.292 211.5Z"/><path fill="#D1CFD1" transform="scale(1.6732 1.67402)" d="M252.736 290.203C253.326 290.182 253.435 290.227 254.006 290.317L254.319 290.815C254.292 290.913 254.271 291.012 254.238 291.107C252.75 295.536 200.082 324.175 192.565 328.137C185.052 332.097 177.299 335.582 169.809 339.593L168.957 339.703L168.681 339.432C170.511 337.081 199.338 321.492 204.393 318.604L239.652 298.234C244.074 295.668 248.325 292.707 252.736 290.203Z"/><path fill="#D1CFD1" transform="scale(1.6732 1.67402)" d="M378.95 226.205C384.448 223.805 388.397 224.329 394.076 222.882C396.044 222.381 400.262 220.353 401.222 220.308C402.195 221.158 401.367 223.269 400.618 223.9C396.047 227.748 388.741 227.527 383.418 230.042C378.534 232.588 373.864 235.8 369.07 238.449C359.271 243.807 349.304 248.851 339.184 253.573C338.281 253.572 338.142 253.362 337.365 252.797C349.045 245.805 361.205 239.695 372.928 232.768C377.545 230.041 376.177 229.737 378.95 226.205Z"/><path transform="scale(1.6732 1.67402)" d="M376.685 225.191L376.64 225.626C373.454 227.146 369.557 230.251 366.208 232.058L325.902 253.772C326.723 252.425 330.308 250.281 331.765 249.194C338.261 244.367 344.84 239.653 351.499 235.054C355.21 232.467 361.783 227.311 365.065 225.37C367.898 225.692 373.873 225.541 376.685 225.191Z"/><defs><linearGradient id="gradient_1" gradientUnits="userSpaceOnUse" x1="168.48112" y1="217.58815" x2="169.254" y2="230.56407"><stop offset="0" stop-color="#E8E1F0"/><stop offset="1" stop-color="#CDCCCD"/></linearGradient></defs><path fill="url(#gradient_1)" transform="scale(1.6732 1.67402)" d="M147.321 218.109C149.482 218.424 153.469 221.96 155.657 223.019C157.789 224.051 159.718 224.734 162.004 225.332C166.007 226.342 170.099 226.957 174.221 227.168C176.711 227.295 189.46 226.893 190.531 227.619C190.467 228.443 190.155 228.495 189.454 229.213C187.372 230.46 185.662 230.405 183.314 230.474C173.596 230.76 163.546 230.022 154.745 225.529C152.215 224.237 148.143 220.938 147.321 218.109Z"/><path fill="#D1CFD1" transform="scale(1.6732 1.67402)" d="M302.551 263.271C303.127 263.426 302.861 263.297 303.286 263.778C303.287 264.493 302.999 265.328 302.576 265.78C297.528 271.19 267.287 290.801 261.901 291.869C261.121 291.345 261.181 291.569 261.02 290.881C261.667 290.021 265.596 288.156 266.992 287.261L289.238 272.825C293.534 270.047 298.83 265.416 302.551 263.271Z"/><path fill="#D1CFD1" transform="scale(1.6732 1.67402)" d="M424.5 80.3805L424.595 80.8271C424.396 81.5844 418.47 86.8685 417.411 87.8312C410.732 93.8984 403.828 99.7862 397.02 105.711C395.91 106.771 395.194 109.107 394.111 110.109C389.753 114.141 384.19 119.97 379.263 123.164L379.176 122.418C380.19 119.725 388.513 113.056 391.05 110.627C393.251 108.71 394.61 104.938 396.663 103.069C405.389 95.1262 414.782 87.0502 424.5 80.3805Z"/><path fill="#D1CFD1" transform="scale(1.6732 1.67402)" d="M479.159 102.196C479.375 102.209 479.749 102.327 479.977 102.386C480.364 104.582 476.261 107.438 474.703 108.876C468.703 114.416 462.638 119.831 455.828 124.374C453.26 125.897 451.487 128.288 449.329 130.176C446.696 132.481 443.082 135.934 439.658 136.656C438.737 136.213 438.786 136.424 438.462 135.708C438.855 134.878 444.826 131.999 446.505 129.719C447.871 128.598 450.884 124.695 452.223 123.977C462.609 118.408 470.018 109.038 479.159 102.196Z"/><path fill="#D1CFD1" transform="scale(1.6732 1.67402)" d="M497.88 82.4867L498.091 82.8195C497.114 84.6672 482.948 99.0975 480.175 100.334C479.568 99.3485 479.372 99.0489 479.507 98.0615C483.804 93.4926 492.725 86.0192 497.88 82.4867Z"/><path fill="#D1CFD1" transform="scale(1.6732 1.67402)" d="M323.175 254.28C323.762 254.706 323.555 254.428 323.756 255.18C322.526 258.292 313.027 264.43 310 265.835L309.489 265.284C309.627 264.211 312.661 261.149 313.547 260.299C316.373 257.59 320.042 256.734 323.175 254.28Z"/><path transform="scale(1.6732 1.67402)" d="M310.379 115.395L310.612 115.709C309.465 117.302 298.186 125.496 295.898 127.011C294.733 127.783 289.365 130.564 287.316 131.881L287 131.409C291.652 127.851 295.48 125.146 300.456 122.017C303.309 120.222 307.936 117.4 310.379 115.395Z"/><path transform="scale(1.6732 1.67402)" d="M200.519 230.527C201.993 229.732 206.444 227.57 207.954 227.813C207.459 229.015 201.812 233.035 200.474 233.568C200.026 232.863 200.189 233.09 199.128 232.801L199.129 232.451C200.023 231.965 200.083 231.953 200.714 231.181L200.519 230.527Z"/><path fill="#3B353C" fill-opacity="0.88235295" transform="scale(1.6732 1.67402)" d="M373.177 131.004L373.136 131.219C371.66 132.936 366.894 136.189 364.769 136.739C364.719 136.404 364.783 136.398 364.897 136.029C367.112 134.554 370.864 132.066 373.177 131.004Z"/><path fill="#B6B4BB" fill-opacity="0.98039216" transform="scale(1.6732 1.67402)" d="M337.365 252.797C338.142 253.362 338.281 253.572 339.184 253.573C336.439 254.623 335.058 256.268 331.885 256.354L337.365 252.797Z"/><path transform="scale(1.6732 1.67402)" d="M311.155 120.267C310.294 121.283 308.115 122.032 306.822 122.569L306.655 122.454C308.195 120.937 308.687 120.732 310.656 119.77L311.155 120.267Z"/></svg>